# xmcd
#
# Track frame offsets: 
#        150
#        20250
#        39788
#        61389
#        82612
#        96346
#        113177
#        130329
#        144128
#        167559
#        187402
#        201361
#        211377
#
# Disc length: 3086 seconds
#
# Revision: 0
# Processed by: cddbd v1.5.2PL0 Copyright (c) Steve Scherf et al.
# Submitted via: ExactAudioCopy v0.95b4
#
DISCID=ad0c0c0d
DTITLE=Susan Tedeschi - Best Of
DYEAR=2005
DGENRE=Blues
TTITLE0=Rock Me Right
TTITLE1=Alone
TTITLE2=It Hurt So Bad
TTITLE3=Don't Think Twice, It's Alright
TTITLE4=You Need To Be With Me
TTITLE5=In The Garden
TTITLE6=Little By Little
TTITLE7=Wrapped In The Arms Of Another
TTITLE8=Looking For Answers
TTITLE9=Gonna Move
TTITLE10=Rock And Roll
TTITLE11=You Can Make It If You Try (Live)
TTITLE12=Love's In Need Of Love Today (Live)
EXTD=
EXTT0=
EXTT1=
EXTT2=
EXTT3=
EXTT4=
EXTT5=
EXTT6=
EXTT7=
EXTT8=
EXTT9=
EXTT10=
EXTT11=
EXTT12=
PLAYORDER=
